<?xml version="1.0" encoding="utf-8"?>
<!-- Svg Vector Icons : http://www.onlinewebfonts.com/icon -->
<!DOCTYPE svg PUBLIC "-//W3C//DTD SVG 1.1//EN" "http://www.w3.org/Graphics/SVG/1.1/DTD/svg11.dtd">
<svg version="1.1" xmlns="http://www.w3.org/2000/svg" xmlns:xlink="http://www.w3.org/1999/xlink" x="0px" y="0px" viewBox="0 0 1000 1000" enable-background="new 0 0 1000 1000" xml:space="preserve">
<metadata> Svg Vector Icons : http://www.onlinewebfonts.com/icon </metadata>
<g><g transform="translate(0.000000,511.000000) scale(0.100000,-0.100000)"><path d="M4730.9,4792.1c-533.7-68-1014.2-301.9-1390.5-678.3C2732.2,3505.7,2509,2651,2736.5,1798.4c74.4-276.4,140.3-421,425.2-929.2C3718.8-128,4195.1-1172,4599.1-2275.4c93.5-257.3,185-493.3,199.9-523.1c51-99.9,208.4-136.1,327.4-76.5c70.2,36.2,80.8,61.7,297.7,650.6C5887.5-965.7,6304.3-62.1,6906,988.3c204.1,355.1,287,544.3,361.4,816.5c225.4,842,0,1705.2-606,2309.1c-342.3,342.3-752.7,561.3-1209.8,648.5C5243.3,4802.7,4920.1,4815.5,4730.9,4792.1z M5194.4,3388.8c370-68,699.5-382.7,782.5-746.3c102.1-435.9-125.4-903.6-535.8-1101.4c-642.1-312.6-1396.9,163.7-1396.9,880.2C4044.1,3027.3,4603.3,3499.3,5194.4,3388.8z"/><path d="M3172.4-1354.8C2000.8-1510,1063.2-1790.7,591.2-2126.6c-178.6-127.6-357.2-323.2-429.5-474.1c-53.2-108.4-61.7-148.8-61.7-314.7c0-174.3,6.4-206.2,68-329.6c116.9-240.2,361.5-452.9,729.3-637.9c1864.7-937.6,6370.1-933.4,8219.9,6.4c104.2,53.2,231.8,127.6,284.9,161.6c170.1,114.8,359.3,323.2,431.6,469.9c59.5,123.3,68,157.3,65.9,329.6c0,165.9-6.4,208.4-59.6,314.7c-248.8,514.5-1075.9,912.1-2394.1,1150.3c-308.3,55.3-939.8,142.5-952.5,129.7c-12.8-10.6-259.4-612.3-255.1-616.6c4.3-2.1,159.5-19.1,346.6-40.4c1175.8-129.7,2179.4-425.2,2542.9-752.7c129.7-116.9,161.6-180.7,116.9-248.8c-199.9-304-997.2-616.6-2011.4-784.6c-742.1-123.3-1335.3-167.9-2232.5-167.9c-693.1,0-1058.8,17-1626.5,80.8C2092.3-3706.4,1027-3357.7,774-3000.5c-65.9,91.4-53.2,131.8,91.4,261.5c363.6,333.8,1362.9,631.5,2551.5,761.2c187.1,21.3,342.3,38.3,346.6,40.4c2.1,2.1-48.9,131.9-114.8,289.2s-123.3,297.7-129.7,312.6c-6.4,12.7-17,25.5-25.5,23.4C3487.1-1312.3,3342.5-1331.4,3172.4-1354.8z"/></g></g>
</svg>