<?xml version="1.0" encoding="utf-8"?>
<!-- Svg Vector Icons : http://www.onlinewebfonts.com/icon -->
<!DOCTYPE svg PUBLIC "-//W3C//DTD SVG 1.1//EN" "http://www.w3.org/Graphics/SVG/1.1/DTD/svg11.dtd">
<svg version="1.1" xmlns="http://www.w3.org/2000/svg" xmlns:xlink="http://www.w3.org/1999/xlink" x="0px" y="0px" viewBox="0 0 1000 1000" enable-background="new 0 0 1000 1000" xml:space="preserve">
<metadata> Svg Vector Icons : http://www.onlinewebfonts.com/icon </metadata>
<g><g transform="translate(0.000000,512.000000) scale(0.100000,-0.100000)"><path d="M2326.6,4994.8c-69-24.9-770.3-561.4-770.3-590.1c0-21.1,1870.1-2490.9,1904.6-2513.9c26.8-19.2,668.7,469.4,774.1,590.1c76.6,88.1,97.7,210.8,53.7,323.8c-17.2,44.1-320,456-674.5,914c-352.5,457.9-714.7,929.3-804.7,1048.1c-170.5,224.2-214.6,256.7-350.6,252.9C2420.4,5019.7,2361,5008.2,2326.6,4994.8z"/><path d="M1291.9,4182.4c-216.5-274-367.9-728.1-406.2-1216.7c-82.4-1094.1,387-2443,1370-3931.8c659.1-1000.2,1502.2-1971.6,2239.9-2584.8C5283-4204.2,5976.6-4572.1,6729.6-4733c266.3-57.5,762.6-63.2,967.6-11.5c166.7,42.2,396.6,145.6,389,176.3c-3.8,13.4-427.3,574.8-944.6,1249.3l-938.9,1226.3l-84.3-46c-206.9-109.2-433-13.4-843.1,356.4c-199.3,180.1-601.6,611.2-831.6,892.9C4018.4-370.2,3470.4,419.2,3284.6,781.4c-214.6,419.6-231.8,699.4-51.7,879.5c26.8,26.8,42.2,57.5,34.5,70.9c-17.2,30.7-1864.3,2469.8-1893.1,2500.5C1355.1,4253.3,1339.8,4243.7,1291.9,4182.4z"/><path d="M7206.8-1337.8c-86.2-26.8-132.2-59.4-480.9-331.5l-341.1-268.3l245.3-320c134.1-174.4,561.4-733.8,948.4-1241.6l707-921.6l381.3,297c302.8,237.6,389,316.2,419.6,379.4c47.9,97.7,49.8,210.8,3.8,297c-49.8,95.8-1448.6,1929.5-1536.7,2015.7C7455.9-1335.9,7327.5-1301.4,7206.8-1337.8z"/></g></g>
</svg>