<?xml version="1.0" encoding="UTF-8" standalone="no"?>
<!-- Created with Inkscape (http://www.inkscape.org/) -->

<svg
   width="180mm"
   height="110mm"
   viewBox="0 0 180 110"
   version="1.1"
   id="svg5"
   inkscape:version="1.1.2 (0a00cf5339, 2022-02-04, custom)"
   sodipodi:docname="vk.svg"
   xmlns:inkscape="http://www.inkscape.org/namespaces/inkscape"
   xmlns:sodipodi="http://sodipodi.sourceforge.net/DTD/sodipodi-0.dtd"
   xmlns="http://www.w3.org/2000/svg"
   xmlns:svg="http://www.w3.org/2000/svg">
  <sodipodi:namedview
     id="namedview7"
     pagecolor="#505050"
     bordercolor="#eeeeee"
     borderopacity="1"
     inkscape:pageshadow="0"
     inkscape:pageopacity="0"
     inkscape:pagecheckerboard="0"
     inkscape:document-units="mm"
     showgrid="false"
     inkscape:zoom="0.64"
     inkscape:cx="373.4375"
     inkscape:cy="283.59375"
     inkscape:window-width="1920"
     inkscape:window-height="997"
     inkscape:window-x="-9"
     inkscape:window-y="-9"
     inkscape:window-maximized="1"
     inkscape:current-layer="layer1" />
  <defs
     id="defs2">
    <path
       id="SVGID_1_"
       d="m 71.6,5 h 58.9 C 184.3,5 197,17.8 197,71.6 v 58.9 c 0,53.8 -12.8,66.5 -66.6,66.5 H 71.5 C 17.7,197 5,184.2 5,130.4 V 71.5 C 5,17.8 17.8,5 71.6,5 Z" />
  </defs>
  <g
     inkscape:label="Слой 1"
     inkscape:groupmode="layer"
     id="layer1">
    <path
       id="Logo"
       class="st1"
       d="m 168.61718,12.937935 c 1.16776,-3.8925003 0,-6.6172403 -5.44949,-6.6172403 H 145.0027 c -4.67099,0 -6.74699,2.46524 -7.91474,5.1899903 0,0 -9.21224,22.57648 -22.31698,37.10847 -4.28175,4.28175 -6.09825,5.57925 -8.43374,5.57925 -1.16776,0 -2.85451,-1.2975 -2.85451,-5.19 v -36.07047 c 0,-4.6710003 -1.29749,-6.6172403 -5.18999,-6.6172403 H 69.747761 c -2.8545,0 -4.67099,2.20574 -4.67099,4.1519903 0,4.4115 6.48749,5.4495 7.26599,17.64599 v 26.72848 c 0,5.83874 -1.038,6.87674 -3.3735,6.87674 -6.09824,0 -21.14923,-22.57648 -29.97222,-48.52646 -1.8165,-4.8007503 -3.50325,-6.8767403 -8.17425,-6.8767403 h -18.16498 c -5.1900001,0 -6.2280001,2.46524 -6.2280001,5.1899903 0,4.80075 6.0982501,28.67473 28.6747301,60.20395 15.05099,21.538493 36.20022,33.215985 55.403209,33.215985 11.54774,0 12.97498,-2.595 12.97498,-7.006492 V 81.575635 c 0,-5.19 1.038,-6.228 4.80075,-6.228 2.72475,0 7.266,1.2975 18.03524,11.677493 12.32624,12.32624 14.40224,17.905492 21.27898,17.905492 h 18.16499 c 5.19,0 7.78499,-2.595 6.22799,-7.655242 -1.68675,-5.06025 -7.52549,-12.456003 -15.31048,-21.278993 -4.28175,-5.06024 -10.6395,-10.37999 -12.45599,-13.10474 -2.72475,-3.50324 -1.94625,-5.06024 0,-8.04449 0,-0.12975 22.18723,-31.26973 24.39297,-41.90922 z"
       style="stroke-width:1.2975" />
    <path
       style="fill:none;fill-opacity:0.505714;stroke-width:5.49539;stroke-linecap:round;stroke-linejoin:round"
       d="m -152.4699,1325.5731 c -423.71984,-14.8281 -597.86614,-121.8956 -665.17225,-408.95699 -13.63807,-58.16651 -25.78193,-152.93619 -31.09402,-242.65496 -3.37155,-56.94406 -4.38671,-246.11828 -3.15419,-587.782511 1.97485,-547.442649 2.49854,-560.267179 28.06229,-687.219409 44.17042,-219.35474 141.44569,-334.48679 332.0502,-393.00451 57.67893,-17.70812 117.32992,-29.28312 200.09632,-38.82782 62.25293,-7.1792 118.88825,-7.8997 620.92815,-7.8997 569.10221,0 597.09307,0.7231 704.8971,18.2103 270.8449,43.93443 400.6107,161.02605 452.8959,408.66144 28.34,134.22558 33.0456,242.09583 33.0456,757.53213 0,412.45777 -3.2329,547.97134 -15.4458,647.44464 -42.6346,347.25679 -178.9803,481.88909 -530.44031,523.77459 -31.44349,3.7474 -109.87153,8.6854 -174.28454,10.9734 -134.43762,4.7755 -813.872838,4.5967 -952.38445,-0.2506 z M 430.53359,641.72694 c 39.2933,-13.6305 39.79897,-15.36477 42.34407,-145.2236 2.52212,-128.68593 1.40264,-125.27228 41.08246,-125.27228 51.2861,0 124.71172,56.92409 254.58523,197.37021 38.70225,41.8529 64.18695,65.63732 76.94939,71.81553 17.84132,8.63683 26.47841,9.23756 132.81127,9.23756 120.60149,0 133.44219,-1.94733 144.09499,-21.8523 8.9486,-16.72056 5.1944,-47.82693 -9.2453,-76.60578 -26.483,-52.78137 -93.9978,-137.23635 -180.96348,-226.3691 -66.63487,-68.29525 -88.0835,-95.41376 -88.0835,-111.36799 0,-14.82883 8.6949,-30.31685 55.32797,-98.55434 118.82121,-173.869291 188.52811,-301.69908 195.18921,-357.9413 2.3519,-19.85852 1.4531,-22.74501 -10.9423,-35.14042 l -13.5047,-13.50468 -116.34966,0.0177 c -150.77151,0.0221 -141.17603,-4.72215 -185.53845,91.7216 -65.36358,142.100316 -153.43435,276.338529 -218.8644,333.59487 -38.53118,33.71772 -61.61061,38.02904 -71.46772,13.35039 -3.23166,-8.09085 -5.28443,-78.551562 -6.08528,-208.873684 -1.29679,-211.018916 -1.69387,-214.740596 -23.99779,-224.902956 -7.23772,-3.29888 -61.53513,-4.9079 -165.58081,-4.9079 H 127.48318 l -12.91827,12.91831 c -19.315196,19.31515 -17.632635,37.1578 6.6092,70.08803 45.97564,62.45348 46.64774,66.22068 46.71129,261.829708 0.0451,139.012152 -0.90293,162.794282 -6.82725,171.252422 -7.96931,11.37779 -23.38623,12.68099 -41.17748,3.48078 C 98.978288,217.07869 52.869137,163.74162 16.48478,108.28386 -26.851452,42.22992 -98.254123,-101.54159 -128.37992,-183.40582 c -41.75386,-113.46244 -32.95538,-108.23759 -182.30362,-108.2592 -130.11932,-0.0177 -136.1486,1.24725 -144.89081,30.42614 -3.91829,13.07812 -3.88479,24.30167 0.14155,47.42269 29.93082,171.875389 211.31377,501.87943 360.119004,655.19224 104.2082713,107.36498 216.647926,173.25761 339.791856,199.12706 54.62926,11.47626 154.60466,12.13387 186.05553,1.22383 z"
       id="path930"
       transform="scale(0.26458333)" />
    <path
       style="fill:#6c5353;fill-opacity:0;stroke-width:5.49539;stroke-linecap:round;stroke-linejoin:round"
       d="m -152.4699,1325.5731 c -423.71984,-14.8281 -597.86614,-121.8956 -665.17225,-408.95699 -13.63807,-58.16651 -25.78193,-152.93619 -31.09402,-242.65496 -3.37155,-56.94406 -4.38671,-246.11828 -3.15419,-587.782511 1.97485,-547.442649 2.49854,-560.267179 28.06229,-687.219409 44.17042,-219.35474 141.44569,-334.48679 332.0502,-393.00451 57.67893,-17.70812 117.32992,-29.28312 200.09632,-38.82782 62.25293,-7.1792 118.88825,-7.8997 620.92815,-7.8997 569.10221,0 597.09307,0.7231 704.8971,18.2103 270.8449,43.93443 400.6107,161.02605 452.8959,408.66144 28.34,134.22558 33.0456,242.09583 33.0456,757.53213 0,412.45777 -3.2329,547.97134 -15.4458,647.44464 -42.6346,347.25679 -178.9803,481.88909 -530.44031,523.77459 -31.44349,3.7474 -109.87153,8.6854 -174.28454,10.9734 -134.43762,4.7755 -813.872838,4.5967 -952.38445,-0.2506 z M 430.53359,641.72694 c 39.2933,-13.6305 39.79897,-15.36477 42.34407,-145.2236 2.52212,-128.68593 1.40264,-125.27228 41.08246,-125.27228 51.2861,0 124.71172,56.92409 254.58523,197.37021 38.70225,41.8529 64.18695,65.63732 76.94939,71.81553 17.84132,8.63683 26.47841,9.23756 132.81127,9.23756 120.60149,0 133.44219,-1.94733 144.09499,-21.8523 8.9486,-16.72056 5.1944,-47.82693 -9.2453,-76.60578 -26.483,-52.78137 -93.9978,-137.23635 -180.96348,-226.3691 -66.63487,-68.29525 -88.0835,-95.41376 -88.0835,-111.36799 0,-14.82883 8.6949,-30.31685 55.32797,-98.55434 118.82121,-173.869291 188.52811,-301.69908 195.18921,-357.9413 2.3519,-19.85852 1.4531,-22.74501 -10.9423,-35.14042 l -13.5047,-13.50468 -116.34966,0.0177 c -150.77151,0.0221 -141.17603,-4.72215 -185.53845,91.7216 -65.36358,142.100316 -153.43435,276.338529 -218.8644,333.59487 -38.53118,33.71772 -61.61061,38.02904 -71.46772,13.35039 -3.23166,-8.09085 -5.28443,-78.551562 -6.08528,-208.873684 -1.29679,-211.018916 -1.69387,-214.740596 -23.99779,-224.902956 -7.23772,-3.29888 -61.53513,-4.9079 -165.58081,-4.9079 H 127.48318 l -12.91827,12.91831 c -19.315196,19.31515 -17.632635,37.1578 6.6092,70.08803 45.97564,62.45348 46.64774,66.22068 46.71129,261.829708 0.0451,139.012152 -0.90293,162.794282 -6.82725,171.252422 -7.96931,11.37779 -23.38623,12.68099 -41.17748,3.48078 C 98.978288,217.07869 52.869137,163.74162 16.48478,108.28386 -26.851452,42.22992 -98.254123,-101.54159 -128.37992,-183.40582 c -41.75386,-113.46244 -32.95538,-108.23759 -182.30362,-108.2592 -130.11932,-0.0177 -136.1486,1.24725 -144.89081,30.42614 -3.91829,13.07812 -3.88479,24.30167 0.14155,47.42269 29.93082,171.875389 211.31377,501.87943 360.119004,655.19224 104.2082713,107.36498 216.647926,173.25761 339.791856,199.12706 54.62926,11.47626 154.60466,12.13387 186.05553,1.22383 z"
       id="path969"
       transform="scale(0.26458333)" />
    <path
       style="fill:#6c5353;fill-opacity:0;stroke-width:5.49539;stroke-linecap:round;stroke-linejoin:round"
       d="m -152.4699,1325.5731 c -423.71984,-14.8281 -597.86614,-121.8956 -665.17225,-408.95699 -13.63807,-58.16651 -25.78193,-152.93619 -31.09402,-242.65496 -3.37155,-56.94406 -4.38671,-246.11828 -3.15419,-587.782511 1.97485,-547.442649 2.49854,-560.267179 28.06229,-687.219409 44.17042,-219.35474 141.44569,-334.48679 332.0502,-393.00451 57.67893,-17.70812 117.32992,-29.28312 200.09632,-38.82782 62.25293,-7.1792 118.88825,-7.8997 620.92815,-7.8997 569.10221,0 597.09307,0.7231 704.8971,18.2103 270.8449,43.93443 400.6107,161.02605 452.8959,408.66144 28.34,134.22558 33.0456,242.09583 33.0456,757.53213 0,412.45777 -3.2329,547.97134 -15.4458,647.44464 -42.6346,347.25679 -178.9803,481.88909 -530.44031,523.77459 -31.44349,3.7474 -109.87153,8.6854 -174.28454,10.9734 -134.43762,4.7755 -813.872838,4.5967 -952.38445,-0.2506 z M 430.53359,641.72694 c 39.2933,-13.6305 39.79897,-15.36477 42.34407,-145.2236 2.52212,-128.68593 1.40264,-125.27228 41.08246,-125.27228 51.2861,0 124.71172,56.92409 254.58523,197.37021 38.70225,41.8529 64.18695,65.63732 76.94939,71.81553 17.84132,8.63683 26.47841,9.23756 132.81127,9.23756 120.60149,0 133.44219,-1.94733 144.09499,-21.8523 8.9486,-16.72056 5.1944,-47.82693 -9.2453,-76.60578 -26.483,-52.78137 -93.9978,-137.23635 -180.96348,-226.3691 -66.63487,-68.29525 -88.0835,-95.41376 -88.0835,-111.36799 0,-14.82883 8.6949,-30.31685 55.32797,-98.55434 118.82121,-173.869291 188.52811,-301.69908 195.18921,-357.9413 2.3519,-19.85852 1.4531,-22.74501 -10.9423,-35.14042 l -13.5047,-13.50468 -116.34966,0.0177 c -150.77151,0.0221 -141.17603,-4.72215 -185.53845,91.7216 -65.36358,142.100316 -153.43435,276.338529 -218.8644,333.59487 -38.53118,33.71772 -61.61061,38.02904 -71.46772,13.35039 -3.23166,-8.09085 -5.28443,-78.551562 -6.08528,-208.873684 -1.29679,-211.018916 -1.69387,-214.740596 -23.99779,-224.902956 -7.23772,-3.29888 -61.53513,-4.9079 -165.58081,-4.9079 H 127.48318 l -12.91827,12.91831 c -19.315196,19.31515 -17.632635,37.1578 6.6092,70.08803 45.97564,62.45348 46.64774,66.22068 46.71129,261.829708 0.0451,139.012152 -0.90293,162.794282 -6.82725,171.252422 -7.96931,11.37779 -23.38623,12.68099 -41.17748,3.48078 C 98.978288,217.07869 52.869137,163.74162 16.48478,108.28386 -26.851452,42.22992 -98.254123,-101.54159 -128.37992,-183.40582 c -41.75386,-113.46244 -32.95538,-108.23759 -182.30362,-108.2592 -130.11932,-0.0177 -136.1486,1.24725 -144.89081,30.42614 -3.91829,13.07812 -3.88479,24.30167 0.14155,47.42269 29.93082,171.875389 211.31377,501.87943 360.119004,655.19224 104.2082713,107.36498 216.647926,173.25761 339.791856,199.12706 54.62926,11.47626 154.60466,12.13387 186.05553,1.22383 z"
       id="path1452"
       transform="scale(0.26458333)" />
    <path
       style="fill:#6c5353;fill-opacity:0;stroke-width:5.49539;stroke-linecap:round;stroke-linejoin:round"
       d="m -152.4699,1325.5731 c -423.71984,-14.8281 -597.86614,-121.8956 -665.17225,-408.95699 -13.63807,-58.16651 -25.78193,-152.93619 -31.09402,-242.65496 -3.37155,-56.94406 -4.38671,-246.11828 -3.15419,-587.782511 1.97485,-547.442649 2.49854,-560.267179 28.06229,-687.219409 44.17042,-219.35474 141.44569,-334.48679 332.0502,-393.00451 57.67893,-17.70812 117.32992,-29.28312 200.09632,-38.82782 62.25293,-7.1792 118.88825,-7.8997 620.92815,-7.8997 569.10221,0 597.09307,0.7231 704.8971,18.2103 270.8449,43.93443 400.6107,161.02605 452.8959,408.66144 28.34,134.22558 33.0456,242.09583 33.0456,757.53213 0,412.45777 -3.2329,547.97134 -15.4458,647.44464 -42.6346,347.25679 -178.9803,481.88909 -530.44031,523.77459 -31.44349,3.7474 -109.87153,8.6854 -174.28454,10.9734 -134.43762,4.7755 -813.872838,4.5967 -952.38445,-0.2506 z M 430.53359,641.72694 c 39.2933,-13.6305 39.79897,-15.36477 42.34407,-145.2236 2.52212,-128.68593 1.40264,-125.27228 41.08246,-125.27228 51.2861,0 124.71172,56.92409 254.58523,197.37021 38.70225,41.8529 64.18695,65.63732 76.94939,71.81553 17.84132,8.63683 26.47841,9.23756 132.81127,9.23756 120.60149,0 133.44219,-1.94733 144.09499,-21.8523 8.9486,-16.72056 5.1944,-47.82693 -9.2453,-76.60578 -26.483,-52.78137 -93.9978,-137.23635 -180.96348,-226.3691 -66.63487,-68.29525 -88.0835,-95.41376 -88.0835,-111.36799 0,-14.82883 8.6949,-30.31685 55.32797,-98.55434 118.82121,-173.869291 188.52811,-301.69908 195.18921,-357.9413 2.3519,-19.85852 1.4531,-22.74501 -10.9423,-35.14042 l -13.5047,-13.50468 -116.34966,0.0177 c -150.77151,0.0221 -141.17603,-4.72215 -185.53845,91.7216 -65.36358,142.100316 -153.43435,276.338529 -218.8644,333.59487 -38.53118,33.71772 -61.61061,38.02904 -71.46772,13.35039 -3.23166,-8.09085 -5.28443,-78.551562 -6.08528,-208.873684 -1.29679,-211.018916 -1.69387,-214.740596 -23.99779,-224.902956 -7.23772,-3.29888 -61.53513,-4.9079 -165.58081,-4.9079 H 127.48318 l -12.91827,12.91831 c -19.315196,19.31515 -17.632635,37.1578 6.6092,70.08803 45.97564,62.45348 46.64774,66.22068 46.71129,261.829708 0.0451,139.012152 -0.90293,162.794282 -6.82725,171.252422 -7.96931,11.37779 -23.38623,12.68099 -41.17748,3.48078 C 98.978288,217.07869 52.869137,163.74162 16.48478,108.28386 -26.851452,42.22992 -98.254123,-101.54159 -128.37992,-183.40582 c -41.75386,-113.46244 -32.95538,-108.23759 -182.30362,-108.2592 -130.11932,-0.0177 -136.1486,1.24725 -144.89081,30.42614 -3.91829,13.07812 -3.88479,24.30167 0.14155,47.42269 29.93082,171.875389 211.31377,501.87943 360.119004,655.19224 104.2082713,107.36498 216.647926,173.25761 339.791856,199.12706 54.62926,11.47626 154.60466,12.13387 186.05553,1.22383 z"
       id="path1491"
       transform="scale(0.26458333)" />
    <path
       style="fill:#6c5353;fill-opacity:0;stroke-width:5.49539;stroke-linecap:round;stroke-linejoin:round"
       d="m -152.4699,1325.5731 c -423.71984,-14.8281 -597.86614,-121.8956 -665.17225,-408.95699 -13.63807,-58.16651 -25.78193,-152.93619 -31.09402,-242.65496 -3.37155,-56.94406 -4.38671,-246.11828 -3.15419,-587.782511 1.97485,-547.442649 2.49854,-560.267179 28.06229,-687.219409 44.17042,-219.35474 141.44569,-334.48679 332.0502,-393.00451 57.67893,-17.70812 117.32992,-29.28312 200.09632,-38.82782 62.25293,-7.1792 118.88825,-7.8997 620.92815,-7.8997 569.10221,0 597.09307,0.7231 704.8971,18.2103 270.8449,43.93443 400.6107,161.02605 452.8959,408.66144 28.34,134.22558 33.0456,242.09583 33.0456,757.53213 0,412.45777 -3.2329,547.97134 -15.4458,647.44464 -42.6346,347.25679 -178.9803,481.88909 -530.44031,523.77459 -31.44349,3.7474 -109.87153,8.6854 -174.28454,10.9734 -134.43762,4.7755 -813.872838,4.5967 -952.38445,-0.2506 z M 430.53359,641.72694 c 39.2933,-13.6305 39.79897,-15.36477 42.34407,-145.2236 2.52212,-128.68593 1.40264,-125.27228 41.08246,-125.27228 51.2861,0 124.71172,56.92409 254.58523,197.37021 38.70225,41.8529 64.18695,65.63732 76.94939,71.81553 17.84132,8.63683 26.47841,9.23756 132.81127,9.23756 120.60149,0 133.44219,-1.94733 144.09499,-21.8523 8.9486,-16.72056 5.1944,-47.82693 -9.2453,-76.60578 -26.483,-52.78137 -93.9978,-137.23635 -180.96348,-226.3691 -66.63487,-68.29525 -88.0835,-95.41376 -88.0835,-111.36799 0,-14.82883 8.6949,-30.31685 55.32797,-98.55434 118.82121,-173.869291 188.52811,-301.69908 195.18921,-357.9413 2.3519,-19.85852 1.4531,-22.74501 -10.9423,-35.14042 l -13.5047,-13.50468 -116.34966,0.0177 c -150.77151,0.0221 -141.17603,-4.72215 -185.53845,91.7216 -65.36358,142.100316 -153.43435,276.338529 -218.8644,333.59487 -38.53118,33.71772 -61.61061,38.02904 -71.46772,13.35039 -3.23166,-8.09085 -5.28443,-78.551562 -6.08528,-208.873684 -1.29679,-211.018916 -1.69387,-214.740596 -23.99779,-224.902956 -7.23772,-3.29888 -61.53513,-4.9079 -165.58081,-4.9079 H 127.48318 l -12.91827,12.91831 c -19.315196,19.31515 -17.632635,37.1578 6.6092,70.08803 45.97564,62.45348 46.64774,66.22068 46.71129,261.829708 0.0451,139.012152 -0.90293,162.794282 -6.82725,171.252422 -7.96931,11.37779 -23.38623,12.68099 -41.17748,3.48078 C 98.978288,217.07869 52.869137,163.74162 16.48478,108.28386 -26.851452,42.22992 -98.254123,-101.54159 -128.37992,-183.40582 c -41.75386,-113.46244 -32.95538,-108.23759 -182.30362,-108.2592 -130.11932,-0.0177 -136.1486,1.24725 -144.89081,30.42614 -3.91829,13.07812 -3.88479,24.30167 0.14155,47.42269 29.93082,171.875389 211.31377,501.87943 360.119004,655.19224 104.2082713,107.36498 216.647926,173.25761 339.791856,199.12706 54.62926,11.47626 154.60466,12.13387 186.05553,1.22383 z"
       id="path1530"
       transform="scale(0.26458333)" />
    <path
       style="fill:#6c5353;fill-opacity:0;stroke-width:5.49539;stroke-linecap:round;stroke-linejoin:round"
       d="m -152.4699,1325.5731 c -423.71984,-14.8281 -597.86614,-121.8956 -665.17225,-408.95699 -13.63807,-58.16651 -25.78193,-152.93619 -31.09402,-242.65496 -3.37155,-56.94406 -4.38671,-246.11828 -3.15419,-587.782511 1.97485,-547.442649 2.49854,-560.267179 28.06229,-687.219409 44.17042,-219.35474 141.44569,-334.48679 332.0502,-393.00451 57.67893,-17.70812 117.32992,-29.28312 200.09632,-38.82782 62.25293,-7.1792 118.88825,-7.8997 620.92815,-7.8997 569.10221,0 597.09307,0.7231 704.8971,18.2103 270.8449,43.93443 400.6107,161.02605 452.8959,408.66144 28.34,134.22558 33.0456,242.09583 33.0456,757.53213 0,412.45777 -3.2329,547.97134 -15.4458,647.44464 -42.6346,347.25679 -178.9803,481.88909 -530.44031,523.77459 -31.44349,3.7474 -109.87153,8.6854 -174.28454,10.9734 -134.43762,4.7755 -813.872838,4.5967 -952.38445,-0.2506 z M 430.53359,641.72694 c 39.2933,-13.6305 39.79897,-15.36477 42.34407,-145.2236 2.52212,-128.68593 1.40264,-125.27228 41.08246,-125.27228 51.2861,0 124.71172,56.92409 254.58523,197.37021 38.70225,41.8529 64.18695,65.63732 76.94939,71.81553 17.84132,8.63683 26.47841,9.23756 132.81127,9.23756 120.60149,0 133.44219,-1.94733 144.09499,-21.8523 8.9486,-16.72056 5.1944,-47.82693 -9.2453,-76.60578 -26.483,-52.78137 -93.9978,-137.23635 -180.96348,-226.3691 -66.63487,-68.29525 -88.0835,-95.41376 -88.0835,-111.36799 0,-14.82883 8.6949,-30.31685 55.32797,-98.55434 118.82121,-173.869291 188.52811,-301.69908 195.18921,-357.9413 2.3519,-19.85852 1.4531,-22.74501 -10.9423,-35.14042 l -13.5047,-13.50468 -116.34966,0.0177 c -150.77151,0.0221 -141.17603,-4.72215 -185.53845,91.7216 -65.36358,142.100316 -153.43435,276.338529 -218.8644,333.59487 -38.53118,33.71772 -61.61061,38.02904 -71.46772,13.35039 -3.23166,-8.09085 -5.28443,-78.551562 -6.08528,-208.873684 -1.29679,-211.018916 -1.69387,-214.740596 -23.99779,-224.902956 -7.23772,-3.29888 -61.53513,-4.9079 -165.58081,-4.9079 H 127.48318 l -12.91827,12.91831 c -19.315196,19.31515 -17.632635,37.1578 6.6092,70.08803 45.97564,62.45348 46.64774,66.22068 46.71129,261.829708 0.0451,139.012152 -0.90293,162.794282 -6.82725,171.252422 -7.96931,11.37779 -23.38623,12.68099 -41.17748,3.48078 C 98.978288,217.07869 52.869137,163.74162 16.48478,108.28386 -26.851452,42.22992 -98.254123,-101.54159 -128.37992,-183.40582 c -41.75386,-113.46244 -32.95538,-108.23759 -182.30362,-108.2592 -130.11932,-0.0177 -136.1486,1.24725 -144.89081,30.42614 -3.91829,13.07812 -3.88479,24.30167 0.14155,47.42269 29.93082,171.875389 211.31377,501.87943 360.119004,655.19224 104.2082713,107.36498 216.647926,173.25761 339.791856,199.12706 54.62926,11.47626 154.60466,12.13387 186.05553,1.22383 z"
       id="path1569"
       transform="scale(0.26458333)" />
    <path
       style="fill:#0042a4;fill-opacity:0;stroke-width:5.49539;stroke-linecap:round;stroke-linejoin:round"
       d="m -152.4699,1325.5731 c -423.71984,-14.8281 -597.86614,-121.8956 -665.17225,-408.95699 -13.63807,-58.16651 -25.78193,-152.93619 -31.09402,-242.65496 -3.37155,-56.94406 -4.38671,-246.11828 -3.15419,-587.782511 1.97485,-547.442649 2.49854,-560.267179 28.06229,-687.219409 44.17042,-219.35474 141.44569,-334.48679 332.0502,-393.00451 57.67893,-17.70812 117.32992,-29.28312 200.09632,-38.82782 62.25293,-7.1792 118.88825,-7.8997 620.92815,-7.8997 569.10221,0 597.09307,0.7231 704.8971,18.2103 270.8449,43.93443 400.6107,161.02605 452.8959,408.66144 28.34,134.22558 33.0456,242.09583 33.0456,757.53213 0,412.45777 -3.2329,547.97134 -15.4458,647.44464 -42.6346,347.25679 -178.9803,481.88909 -530.44031,523.77459 -31.44349,3.7474 -109.87153,8.6854 -174.28454,10.9734 -134.43762,4.7755 -813.872838,4.5967 -952.38445,-0.2506 z M 430.53359,641.72694 c 39.2933,-13.6305 39.79897,-15.36477 42.34407,-145.2236 2.52212,-128.68593 1.40264,-125.27228 41.08246,-125.27228 51.2861,0 124.71172,56.92409 254.58523,197.37021 38.70225,41.8529 64.18695,65.63732 76.94939,71.81553 17.84132,8.63683 26.47841,9.23756 132.81127,9.23756 120.60149,0 133.44219,-1.94733 144.09499,-21.8523 8.9486,-16.72056 5.1944,-47.82693 -9.2453,-76.60578 -26.483,-52.78137 -93.9978,-137.23635 -180.96348,-226.3691 -66.63487,-68.29525 -88.0835,-95.41376 -88.0835,-111.36799 0,-14.82883 8.6949,-30.31685 55.32797,-98.55434 118.82121,-173.869291 188.52811,-301.69908 195.18921,-357.9413 2.3519,-19.85852 1.4531,-22.74501 -10.9423,-35.14042 l -13.5047,-13.50468 -116.34966,0.0177 c -150.77151,0.0221 -141.17603,-4.72215 -185.53845,91.7216 -65.36358,142.100316 -153.43435,276.338529 -218.8644,333.59487 -38.53118,33.71772 -61.61061,38.02904 -71.46772,13.35039 -3.23166,-8.09085 -5.28443,-78.551562 -6.08528,-208.873684 -1.29679,-211.018916 -1.69387,-214.740596 -23.99779,-224.902956 -7.23772,-3.29888 -61.53513,-4.9079 -165.58081,-4.9079 H 127.48318 l -12.91827,12.91831 c -19.315196,19.31515 -17.632635,37.1578 6.6092,70.08803 45.97564,62.45348 46.64774,66.22068 46.71129,261.829708 0.0451,139.012152 -0.90293,162.794282 -6.82725,171.252422 -7.96931,11.37779 -23.38623,12.68099 -41.17748,3.48078 C 98.978288,217.07869 52.869137,163.74162 16.48478,108.28386 -26.851452,42.22992 -98.254123,-101.54159 -128.37992,-183.40582 c -41.75386,-113.46244 -32.95538,-108.23759 -182.30362,-108.2592 -130.11932,-0.0177 -136.1486,1.24725 -144.89081,30.42614 -3.91829,13.07812 -3.88479,24.30167 0.14155,47.42269 29.93082,171.875389 211.31377,501.87943 360.119004,655.19224 104.2082713,107.36498 216.647926,173.25761 339.791856,199.12706 54.62926,11.47626 154.60466,12.13387 186.05553,1.22383 z"
       id="path1608"
       transform="scale(0.26458333)" />
  </g>
  <style
     id="style824">.st0{clip-path:url(#SVGID_2_);fill:#5181b8}.st1{fill-rule:evenodd;clip-rule:evenodd;fill:#fff}</style>
</svg>
